<svg xmlns="http://www.w3.org/2000/svg" viewBox="0 0 376.55 73.76"><defs><style>.cls-1{fill:#f05f30;}.cls-2{fill:#222080;}.cls-3{fill:#4687e6;}</style></defs><g id="Layer_2" data-name="Layer 2"><g id="Layer_1-2" data-name="Layer 1"><path class="cls-1" d="M215,73.76a.85.85,0,0,1-.85-.85V.86a.86.86,0,1,1,1.71,0V72.91A.85.85,0,0,1,215,73.76Z"/><path class="cls-2" d="M15.94,54C6.37,54,0,46.59,0,37.72S6.37,21.45,15.94,21.45s15.94,7.41,15.94,16.27S25.52,54,15.94,54Zm0-28.44c-7.31,0-11.41,5.71-11.41,12.17s4.1,12.17,11.41,12.17,11.42-5.71,11.42-12.17S23.25,25.55,15.94,25.55Z"/><path class="cls-2" d="M46.76,54a8.48,8.48,0,0,1-7.26-4.05V60.41a2.22,2.22,0,0,1-4.44,0V34.8a2.06,2.06,0,0,1,2.13-2.22,2.14,2.14,0,0,1,2.17,2.27v1.6a8.5,8.5,0,0,1,7.4-4.06c5.42,0,9.86,4.53,9.86,10.8C56.62,49.7,52.18,54,46.76,54Zm-.9-17.92c-3.82,0-6.36,3.35-6.36,7.12s2.54,7.13,6.36,7.13,6.32-2.88,6.32-7.13S49.68,36.07,45.86,36.07Z"/><path class="cls-2" d="M78.79,43.24c0,.76-.43,1.51-1.7,1.51H63c.24,3.25,2.45,5.71,6.37,5.71a7.26,7.26,0,0,0,5.47-2.31,2.13,2.13,0,0,1,1.46-.71,1.79,1.79,0,0,1,1.84,1.84,2,2,0,0,1-.57,1.27A11.27,11.27,0,0,1,69.17,54c-7,0-10.76-4.9-10.76-10.8A10.41,10.41,0,0,1,69,32.39C74.92,32.39,78.79,37.2,78.79,43.24ZM69,35.93a5.86,5.86,0,0,0-5.9,5.24H74.69A5.76,5.76,0,0,0,69,35.93Z"/><path class="cls-2" d="M91.24,32.39a9.68,9.68,0,0,1,9.9,9.86v9.34a2.22,2.22,0,1,1-4.43,0V41.73a5.45,5.45,0,0,0-10.89,0v9.86a2.22,2.22,0,0,1-4.44,0V42.25A9.65,9.65,0,0,1,91.24,32.39Z"/><path class="cls-3" d="M126.71,46.5h-14l-2.68,5.75a2.56,2.56,0,0,1-2.41,1.56,2.66,2.66,0,0,1-2.73-2.69A2.45,2.45,0,0,1,105.2,50l12.07-26.84a2.5,2.5,0,0,1,2.45-1.51,2.43,2.43,0,0,1,2.46,1.51L134.25,50a2.45,2.45,0,0,1,.28,1.13,2.66,2.66,0,0,1-2.73,2.69,2.49,2.49,0,0,1-2.41-1.56Zm-7-17-4.9,12h9.81Z"/><path class="cls-3" d="M139.58,53.81a2.94,2.94,0,0,1-2.92-2.93V24.56a2.94,2.94,0,0,1,2.92-2.92,2.85,2.85,0,0,1,2.83,2.92V50.88A2.86,2.86,0,0,1,139.58,53.81Z"/><path class="cls-3" d="M173.78,50.93a2.86,2.86,0,0,1-2.87,2.88,2.58,2.58,0,0,1-2.55-1.56l-5.52-11.37h-9.48v10a2.88,2.88,0,1,1-5.75,0v-26A2.85,2.85,0,0,1,150.48,22H162.6c7.83,0,11.18,3.87,11.18,9.43,0,3.68-1.6,6.84-5.19,8.4l4.86,9.85A2.79,2.79,0,0,1,173.78,50.93ZM163.41,27.3h-10v8.63h10A4.3,4.3,0,0,0,168,31.5C168,29.42,166.57,27.3,163.41,27.3Z"/><path class="cls-3" d="M198.39,53.43H180.7a2.9,2.9,0,0,1-2.92-2.88V24.89A2.89,2.89,0,0,1,180.7,22h17a2.65,2.65,0,0,1,2.73,2.64,2.69,2.69,0,0,1-2.73,2.69H183.53v7.5h11.93a2.68,2.68,0,0,1,2.68,2.68,2.65,2.65,0,0,1-2.68,2.65H183.53V48.1h14.86a2.69,2.69,0,0,1,2.73,2.69A2.65,2.65,0,0,1,198.39,53.43Z"/><path class="cls-1" d="M227.46,49.1V25.67H244v4.39H232.45v5h11.34v4.39H232.45v5.3H244V49.1Z"/><path class="cls-1" d="M263.18,49.1l-5.87-8.57-5.9,8.57h-5.93l8.5-12-8-11.42h5.94l5.37,8,5.31-8h6l-8,11.38,8.5,12.05Z"/><path class="cls-1" d="M271.33,49.1V25.67h10.95a8.94,8.94,0,0,1,3.38.6,7.15,7.15,0,0,1,2.47,1.63,6.87,6.87,0,0,1,1.51,2.41,8.25,8.25,0,0,1,.51,2.91,8.09,8.09,0,0,1-.53,2.92,7,7,0,0,1-1.52,2.39,7.5,7.5,0,0,1-2.46,1.63,8.57,8.57,0,0,1-3.36.62h-6V49.1Zm10.29-12.71a3.63,3.63,0,0,0,2.45-.85,3.2,3.2,0,0,0,0-4.63,3.58,3.58,0,0,0-2.45-.85h-5.31v6.33Z"/><path class="cls-1" d="M293.21,49.1V25.67h5v19h9.91V49.1Z"/><path class="cls-1" d="M321.69,49.52a13,13,0,0,1-4.88-.9,11.25,11.25,0,0,1-3.88-2.51,11.42,11.42,0,0,1-2.55-3.84,13.46,13.46,0,0,1,0-9.73,11.3,11.3,0,0,1,6.43-6.36,13.19,13.19,0,0,1,4.88-.89,13.33,13.33,0,0,1,4.92.89,11.75,11.75,0,0,1,3.88,2.51A11.44,11.44,0,0,1,333,32.54a13.32,13.32,0,0,1,0,9.73,11.27,11.27,0,0,1-6.42,6.35A13.13,13.13,0,0,1,321.69,49.52Zm0-4.42a7,7,0,0,0,2.93-.6,6.83,6.83,0,0,0,2.25-1.62,7.14,7.14,0,0,0,1.44-2.42,8.93,8.93,0,0,0,.51-3.06,8.83,8.83,0,0,0-.51-3,7.33,7.33,0,0,0-1.44-2.44,6.55,6.55,0,0,0-2.25-1.62,7.69,7.69,0,0,0-5.86,0,6.29,6.29,0,0,0-2.23,1.62,7.48,7.48,0,0,0-1.43,2.44,8.83,8.83,0,0,0-.51,3,8.93,8.93,0,0,0,.51,3.06,7.29,7.29,0,0,0,1.43,2.42,6.55,6.55,0,0,0,2.23,1.62A6.94,6.94,0,0,0,321.69,45.1Z"/><path class="cls-1" d="M350.66,49.1l-4.6-8.32h-3.65V49.1h-5V25.67h11a8.92,8.92,0,0,1,3.28.57,6.84,6.84,0,0,1,4,4,8,8,0,0,1,.55,3,8,8,0,0,1-.44,2.74A6.69,6.69,0,0,1,354.63,38a6.61,6.61,0,0,1-1.65,1.4,6.14,6.14,0,0,1-1.86.76l5.27,8.92Zm-3-12.71a3.76,3.76,0,0,0,2.51-.85,3.16,3.16,0,0,0,0-4.63,3.71,3.71,0,0,0-2.51-.85h-5.23v6.33Z"/><path class="cls-1" d="M360,49.1V25.67h16.58v4.39H365v5H376.3v4.39H365v5.3h11.59V49.1Z"/></g></g></svg>